<svg xmlns="http://www.w3.org/2000/svg" width="1770" height="450" viewBox="0 0 1770 450"><defs><style>.a{fill:#0da6bc;}.b{fill:#0a8192;}.c{fill:#14a4bc;}.d{fill:#0b90a3;}.e{fill:#1ba2bc;}.f{fill:#0c9fb5;}.g{fill:#21a1bc;}.h{fill:#0eafc6;}.i{fill:#269fbc;}.j{fill:#0fbfd9;}.k{fill:#2b9dbc;}.l{fill:#10cfeb;}</style></defs><g transform="translate(60 -450)"><path class="a" d="M957,450,539,900h857Z"/><path class="b" d="M957,450,872.9,900H1396Z"/><path class="c" d="M-60,900,398,662,816,900Z"/><path class="d" d="M337,900l61-238L816,900Z"/><path class="e" d="M1203,546l349,354H876Z"/><path class="f" d="M1203,546l349,354H1162Z"/><path class="g" d="M641,695,886,900H367Z"/><path class="h" d="M587,900l54-205L886,900Z"/><path class="i" d="M1710,900,1401,632,1096,900Z"/><path class="j" d="M1710,900,1401,632l-36,268Z"/><path class="k" d="M1210,900,971,687,725,900Z"/><path class="l" d="M943,900h267L971,687Z"/></g></svg>