<svg xmlns="http://www.w3.org/2000/svg" width="511.912" height="511.972" viewBox="0 0 511.912 511.972"><defs><style>.a{fill:#1ccfeb;opacity:0.4;}.b{fill:#19bfd9;}</style></defs><g transform="translate(-0.008)"><path class="a" d="M383.85,311.19v106a47.92,47.92,0,0,1-26.5,42.9l-98.7,49.39A24,24,0,0,1,224,488V384.16l133.12-59.42Q370.8,318.62,383.85,311.19ZM187.18,154.6q6.06-13.6,13.41-26.6H94.82A48,48,0,0,0,52,154.49L2.53,253.29A24,24,0,0,0,24,288H127.79Z"/><path class="b" d="M505,19.1A15.9,15.9,0,0,0,492.8,6.9C460.6,0,435.41,0,410.31,0c-75.56,0-129,29.59-170.3,74a293,293,0,0,0-52.83,80.59L127.79,288l-22.47,22.47a32,32,0,0,0,0,45.25l50.9,50.91a32,32,0,0,0,45.25,0L224,384.16l133.12-59.42a293.278,293.278,0,0,0,80.59-53c44.45-41.4,74.19-94.85,74.19-170.08C512,76.5,512,51.3,505,19.1ZM384,168a40,40,0,1,1,40-40,40,40,0,0,1-40,40Z"/></g></svg>
